<mxfile host="app.diagrams.net" modified="2023-10-07T05:48:03.726Z" agent="Mozilla/5.0 (X11; Linux x86_64) AppleWebKit/537.36 (KHTML, like Gecko) Chrome/117.0.0.0 Safari/537.36" etag="uzcTrx9wMOmLhJiT1iJw" version="22.0.3" type="github">
  <diagram name="Página-1" id="3HhmI9jsTI8OrooDVBdm">
    <mxGraphModel dx="1118" dy="536" grid="1" gridSize="10" guides="1" tooltips="1" connect="1" arrows="1" fold="1" page="1" pageScale="1" pageWidth="827" pageHeight="1169" math="0" shadow="0">
      <root>
        <mxCell id="0" />
        <mxCell id="1" parent="0" />
        <mxCell id="cNzEcOBiY9ntpD_yxa8k-32" style="edgeStyle=orthogonalEdgeStyle;rounded=0;orthogonalLoop=1;jettySize=auto;html=1;exitX=1;exitY=0;exitDx=0;exitDy=0;entryX=0.5;entryY=1;entryDx=0;entryDy=0;" parent="1" source="CgpgjMbZIhGa_wemtQu6-1" target="CgpgjMbZIhGa_wemtQu6-6" edge="1">
          <mxGeometry relative="1" as="geometry" />
        </mxCell>
        <mxCell id="cNzEcOBiY9ntpD_yxa8k-34" style="edgeStyle=orthogonalEdgeStyle;rounded=0;orthogonalLoop=1;jettySize=auto;html=1;exitX=0.5;exitY=0;exitDx=0;exitDy=0;entryX=1;entryY=1;entryDx=0;entryDy=0;" parent="1" source="CgpgjMbZIhGa_wemtQu6-1" target="CgpgjMbZIhGa_wemtQu6-4" edge="1">
          <mxGeometry relative="1" as="geometry" />
        </mxCell>
        <mxCell id="cNzEcOBiY9ntpD_yxa8k-35" style="edgeStyle=orthogonalEdgeStyle;rounded=0;orthogonalLoop=1;jettySize=auto;html=1;exitX=0;exitY=0;exitDx=0;exitDy=0;entryX=1;entryY=1;entryDx=0;entryDy=0;" parent="1" source="CgpgjMbZIhGa_wemtQu6-1" target="CgpgjMbZIhGa_wemtQu6-5" edge="1">
          <mxGeometry relative="1" as="geometry" />
        </mxCell>
        <mxCell id="cNzEcOBiY9ntpD_yxa8k-36" style="edgeStyle=orthogonalEdgeStyle;rounded=0;orthogonalLoop=1;jettySize=auto;html=1;exitX=0;exitY=0.5;exitDx=0;exitDy=0;entryX=1;entryY=0.5;entryDx=0;entryDy=0;" parent="1" source="CgpgjMbZIhGa_wemtQu6-1" target="CgpgjMbZIhGa_wemtQu6-3" edge="1">
          <mxGeometry relative="1" as="geometry" />
        </mxCell>
        <mxCell id="cNzEcOBiY9ntpD_yxa8k-37" style="edgeStyle=orthogonalEdgeStyle;rounded=0;orthogonalLoop=1;jettySize=auto;html=1;exitX=0;exitY=1;exitDx=0;exitDy=0;entryX=1;entryY=0.5;entryDx=0;entryDy=0;" parent="1" source="CgpgjMbZIhGa_wemtQu6-1" target="CgpgjMbZIhGa_wemtQu6-2" edge="1">
          <mxGeometry relative="1" as="geometry" />
        </mxCell>
        <mxCell id="CgpgjMbZIhGa_wemtQu6-1" value="proveedores" style="whiteSpace=wrap;html=1;align=center;" parent="1" vertex="1">
          <mxGeometry x="160" y="110" width="100" height="40" as="geometry" />
        </mxCell>
        <mxCell id="CgpgjMbZIhGa_wemtQu6-2" value="nombre" style="ellipse;whiteSpace=wrap;html=1;align=center;" parent="1" vertex="1">
          <mxGeometry x="40" y="170" width="100" height="40" as="geometry" />
        </mxCell>
        <mxCell id="CgpgjMbZIhGa_wemtQu6-3" value="direccion" style="ellipse;whiteSpace=wrap;html=1;align=center;" parent="1" vertex="1">
          <mxGeometry x="10" y="100" width="100" height="40" as="geometry" />
        </mxCell>
        <mxCell id="CgpgjMbZIhGa_wemtQu6-4" value="ciudad" style="ellipse;whiteSpace=wrap;html=1;align=center;" parent="1" vertex="1">
          <mxGeometry x="120" y="20" width="100" height="40" as="geometry" />
        </mxCell>
        <mxCell id="CgpgjMbZIhGa_wemtQu6-5" value="provincia" style="ellipse;whiteSpace=wrap;html=1;align=center;" parent="1" vertex="1">
          <mxGeometry x="10" y="30" width="100" height="40" as="geometry" />
        </mxCell>
        <mxCell id="CgpgjMbZIhGa_wemtQu6-6" value="id_proveedor" style="ellipse;whiteSpace=wrap;html=1;align=center;fontStyle=4;" parent="1" vertex="1">
          <mxGeometry x="240" y="20" width="100" height="40" as="geometry" />
        </mxCell>
        <mxCell id="cNzEcOBiY9ntpD_yxa8k-38" style="edgeStyle=orthogonalEdgeStyle;rounded=0;orthogonalLoop=1;jettySize=auto;html=1;exitX=0.25;exitY=0;exitDx=0;exitDy=0;entryX=1;entryY=1;entryDx=0;entryDy=0;" parent="1" source="CgpgjMbZIhGa_wemtQu6-7" target="CgpgjMbZIhGa_wemtQu6-8" edge="1">
          <mxGeometry relative="1" as="geometry">
            <Array as="points">
              <mxPoint x="555" y="100" />
              <mxPoint x="499" y="100" />
            </Array>
          </mxGeometry>
        </mxCell>
        <mxCell id="cNzEcOBiY9ntpD_yxa8k-39" style="edgeStyle=orthogonalEdgeStyle;rounded=0;orthogonalLoop=1;jettySize=auto;html=1;exitX=0.75;exitY=0;exitDx=0;exitDy=0;entryX=0;entryY=1;entryDx=0;entryDy=0;" parent="1" source="CgpgjMbZIhGa_wemtQu6-7" target="CgpgjMbZIhGa_wemtQu6-11" edge="1">
          <mxGeometry relative="1" as="geometry" />
        </mxCell>
        <mxCell id="cNzEcOBiY9ntpD_yxa8k-40" style="edgeStyle=orthogonalEdgeStyle;rounded=0;orthogonalLoop=1;jettySize=auto;html=1;exitX=1;exitY=0;exitDx=0;exitDy=0;entryX=0;entryY=0.5;entryDx=0;entryDy=0;" parent="1" source="CgpgjMbZIhGa_wemtQu6-7" target="CgpgjMbZIhGa_wemtQu6-10" edge="1">
          <mxGeometry relative="1" as="geometry" />
        </mxCell>
        <mxCell id="cNzEcOBiY9ntpD_yxa8k-41" style="edgeStyle=orthogonalEdgeStyle;rounded=0;orthogonalLoop=1;jettySize=auto;html=1;exitX=1;exitY=0.25;exitDx=0;exitDy=0;entryX=0;entryY=0.5;entryDx=0;entryDy=0;" parent="1" source="CgpgjMbZIhGa_wemtQu6-7" target="CgpgjMbZIhGa_wemtQu6-9" edge="1">
          <mxGeometry relative="1" as="geometry" />
        </mxCell>
        <mxCell id="cNzEcOBiY9ntpD_yxa8k-42" style="edgeStyle=orthogonalEdgeStyle;rounded=0;orthogonalLoop=1;jettySize=auto;html=1;exitX=1;exitY=0.75;exitDx=0;exitDy=0;entryX=0;entryY=0.5;entryDx=0;entryDy=0;" parent="1" source="CgpgjMbZIhGa_wemtQu6-7" target="CgpgjMbZIhGa_wemtQu6-12" edge="1">
          <mxGeometry relative="1" as="geometry" />
        </mxCell>
        <mxCell id="cNzEcOBiY9ntpD_yxa8k-43" style="edgeStyle=orthogonalEdgeStyle;rounded=0;orthogonalLoop=1;jettySize=auto;html=1;exitX=0.75;exitY=1;exitDx=0;exitDy=0;entryX=0;entryY=0.5;entryDx=0;entryDy=0;" parent="1" source="CgpgjMbZIhGa_wemtQu6-7" target="cNzEcOBiY9ntpD_yxa8k-15" edge="1">
          <mxGeometry relative="1" as="geometry" />
        </mxCell>
        <mxCell id="cNzEcOBiY9ntpD_yxa8k-53" style="edgeStyle=orthogonalEdgeStyle;rounded=0;orthogonalLoop=1;jettySize=auto;html=1;exitX=0.25;exitY=1;exitDx=0;exitDy=0;entryX=0.5;entryY=0;entryDx=0;entryDy=0;" parent="1" source="CgpgjMbZIhGa_wemtQu6-7" target="cNzEcOBiY9ntpD_yxa8k-52" edge="1">
          <mxGeometry relative="1" as="geometry" />
        </mxCell>
        <mxCell id="CgpgjMbZIhGa_wemtQu6-7" value="piezas" style="whiteSpace=wrap;html=1;align=center;" parent="1" vertex="1">
          <mxGeometry x="530" y="110" width="100" height="40" as="geometry" />
        </mxCell>
        <mxCell id="CgpgjMbZIhGa_wemtQu6-8" value="id_pieza" style="ellipse;whiteSpace=wrap;html=1;align=center;fontStyle=4;" parent="1" vertex="1">
          <mxGeometry x="414" y="40" width="100" height="40" as="geometry" />
        </mxCell>
        <mxCell id="CgpgjMbZIhGa_wemtQu6-9" value="precio" style="ellipse;whiteSpace=wrap;html=1;align=center;" parent="1" vertex="1">
          <mxGeometry x="673.5" y="80" width="100" height="40" as="geometry" />
        </mxCell>
        <mxCell id="CgpgjMbZIhGa_wemtQu6-10" value="color" style="ellipse;whiteSpace=wrap;html=1;align=center;" parent="1" vertex="1">
          <mxGeometry x="700" y="20" width="100" height="40" as="geometry" />
        </mxCell>
        <mxCell id="CgpgjMbZIhGa_wemtQu6-11" value="nombre" style="ellipse;whiteSpace=wrap;html=1;align=center;" parent="1" vertex="1">
          <mxGeometry x="530" width="100" height="40" as="geometry" />
        </mxCell>
        <mxCell id="CgpgjMbZIhGa_wemtQu6-12" value="categoría" style="ellipse;whiteSpace=wrap;html=1;align=center;" parent="1" vertex="1">
          <mxGeometry x="710" y="140" width="100" height="40" as="geometry" />
        </mxCell>
        <mxCell id="cNzEcOBiY9ntpD_yxa8k-44" style="edgeStyle=orthogonalEdgeStyle;rounded=0;orthogonalLoop=1;jettySize=auto;html=1;exitX=1;exitY=0.5;exitDx=0;exitDy=0;entryX=0.5;entryY=0;entryDx=0;entryDy=0;" parent="1" source="CgpgjMbZIhGa_wemtQu6-13" target="CgpgjMbZIhGa_wemtQu6-15" edge="1">
          <mxGeometry relative="1" as="geometry" />
        </mxCell>
        <mxCell id="cNzEcOBiY9ntpD_yxa8k-45" style="edgeStyle=orthogonalEdgeStyle;rounded=0;orthogonalLoop=1;jettySize=auto;html=1;exitX=0.5;exitY=1;exitDx=0;exitDy=0;entryX=0.5;entryY=0;entryDx=0;entryDy=0;" parent="1" source="CgpgjMbZIhGa_wemtQu6-13" target="CgpgjMbZIhGa_wemtQu6-14" edge="1">
          <mxGeometry relative="1" as="geometry" />
        </mxCell>
        <mxCell id="CgpgjMbZIhGa_wemtQu6-13" value="categoría" style="whiteSpace=wrap;html=1;align=center;" parent="1" vertex="1">
          <mxGeometry x="590" y="440" width="100" height="40" as="geometry" />
        </mxCell>
        <mxCell id="CgpgjMbZIhGa_wemtQu6-14" value="id_categoría" style="ellipse;whiteSpace=wrap;html=1;align=center;fontStyle=4;" parent="1" vertex="1">
          <mxGeometry x="590" y="510" width="100" height="40" as="geometry" />
        </mxCell>
        <mxCell id="CgpgjMbZIhGa_wemtQu6-15" value="nombre" style="ellipse;whiteSpace=wrap;html=1;align=center;" parent="1" vertex="1">
          <mxGeometry x="700" y="490" width="100" height="40" as="geometry" />
        </mxCell>
        <mxCell id="cNzEcOBiY9ntpD_yxa8k-47" style="edgeStyle=orthogonalEdgeStyle;rounded=0;orthogonalLoop=1;jettySize=auto;html=1;exitX=0;exitY=0;exitDx=0;exitDy=0;entryX=1;entryY=0.5;entryDx=0;entryDy=0;" parent="1" source="CgpgjMbZIhGa_wemtQu6-16" target="cNzEcOBiY9ntpD_yxa8k-23" edge="1">
          <mxGeometry relative="1" as="geometry" />
        </mxCell>
        <mxCell id="cNzEcOBiY9ntpD_yxa8k-48" style="edgeStyle=orthogonalEdgeStyle;rounded=0;orthogonalLoop=1;jettySize=auto;html=1;exitX=0;exitY=0.5;exitDx=0;exitDy=0;entryX=1;entryY=0.5;entryDx=0;entryDy=0;" parent="1" source="CgpgjMbZIhGa_wemtQu6-16" target="CgpgjMbZIhGa_wemtQu6-17" edge="1">
          <mxGeometry relative="1" as="geometry" />
        </mxCell>
        <mxCell id="cNzEcOBiY9ntpD_yxa8k-49" style="edgeStyle=orthogonalEdgeStyle;rounded=0;orthogonalLoop=1;jettySize=auto;html=1;exitX=0;exitY=1;exitDx=0;exitDy=0;entryX=1;entryY=0;entryDx=0;entryDy=0;" parent="1" source="CgpgjMbZIhGa_wemtQu6-16" target="CgpgjMbZIhGa_wemtQu6-18" edge="1">
          <mxGeometry relative="1" as="geometry" />
        </mxCell>
        <mxCell id="cNzEcOBiY9ntpD_yxa8k-50" style="edgeStyle=orthogonalEdgeStyle;rounded=0;orthogonalLoop=1;jettySize=auto;html=1;exitX=0.25;exitY=1;exitDx=0;exitDy=0;entryX=0.5;entryY=0;entryDx=0;entryDy=0;" parent="1" source="CgpgjMbZIhGa_wemtQu6-16" target="CgpgjMbZIhGa_wemtQu6-19" edge="1">
          <mxGeometry relative="1" as="geometry" />
        </mxCell>
        <mxCell id="cNzEcOBiY9ntpD_yxa8k-51" style="edgeStyle=orthogonalEdgeStyle;rounded=0;orthogonalLoop=1;jettySize=auto;html=1;exitX=1;exitY=1;exitDx=0;exitDy=0;entryX=0.5;entryY=0;entryDx=0;entryDy=0;" parent="1" source="CgpgjMbZIhGa_wemtQu6-16" target="cNzEcOBiY9ntpD_yxa8k-24" edge="1">
          <mxGeometry relative="1" as="geometry" />
        </mxCell>
        <mxCell id="CgpgjMbZIhGa_wemtQu6-16" value="suministros" style="whiteSpace=wrap;html=1;align=center;" parent="1" vertex="1">
          <mxGeometry x="180" y="410" width="100" height="40" as="geometry" />
        </mxCell>
        <mxCell id="CgpgjMbZIhGa_wemtQu6-17" value="cantidad" style="ellipse;whiteSpace=wrap;html=1;align=center;" parent="1" vertex="1">
          <mxGeometry x="20" y="410" width="100" height="40" as="geometry" />
        </mxCell>
        <mxCell id="CgpgjMbZIhGa_wemtQu6-18" value="fecha" style="ellipse;whiteSpace=wrap;html=1;align=center;" parent="1" vertex="1">
          <mxGeometry x="70" y="470" width="100" height="40" as="geometry" />
        </mxCell>
        <mxCell id="CgpgjMbZIhGa_wemtQu6-19" value="id_suministro" style="ellipse;whiteSpace=wrap;html=1;align=center;fontStyle=4;" parent="1" vertex="1">
          <mxGeometry x="170" y="510" width="100" height="40" as="geometry" />
        </mxCell>
        <mxCell id="cNzEcOBiY9ntpD_yxa8k-7" value="" style="endArrow=none;html=1;rounded=0;exitX=0.5;exitY=0;exitDx=0;exitDy=0;entryX=0.5;entryY=1;entryDx=0;entryDy=0;" parent="1" source="cNzEcOBiY9ntpD_yxa8k-8" target="CgpgjMbZIhGa_wemtQu6-7" edge="1">
          <mxGeometry relative="1" as="geometry">
            <mxPoint x="360" y="300" as="sourcePoint" />
            <mxPoint x="520" y="300" as="targetPoint" />
          </mxGeometry>
        </mxCell>
        <mxCell id="cNzEcOBiY9ntpD_yxa8k-9" value="1" style="resizable=0;html=1;whiteSpace=wrap;align=right;verticalAlign=bottom;" parent="1" connectable="0" vertex="1">
          <mxGeometry x="690" y="110" as="geometry">
            <mxPoint x="-33" y="328" as="offset" />
          </mxGeometry>
        </mxCell>
        <mxCell id="cNzEcOBiY9ntpD_yxa8k-10" value="N" style="resizable=0;html=1;whiteSpace=wrap;align=right;verticalAlign=bottom;" parent="1" connectable="0" vertex="1">
          <mxGeometry x="350" y="130" as="geometry">
            <mxPoint x="247" y="38" as="offset" />
          </mxGeometry>
        </mxCell>
        <mxCell id="cNzEcOBiY9ntpD_yxa8k-11" value="" style="endArrow=none;html=1;rounded=0;exitX=0.5;exitY=0;exitDx=0;exitDy=0;entryX=0.5;entryY=1;entryDx=0;entryDy=0;" parent="1" source="CgpgjMbZIhGa_wemtQu6-13" target="cNzEcOBiY9ntpD_yxa8k-8" edge="1">
          <mxGeometry relative="1" as="geometry">
            <mxPoint x="670" y="420" as="sourcePoint" />
            <mxPoint x="530" y="150" as="targetPoint" />
            <Array as="points" />
          </mxGeometry>
        </mxCell>
        <mxCell id="cNzEcOBiY9ntpD_yxa8k-8" value="Relationship" style="shape=rhombus;perimeter=rhombusPerimeter;whiteSpace=wrap;html=1;align=center;" parent="1" vertex="1">
          <mxGeometry x="550" y="290" width="120" height="60" as="geometry" />
        </mxCell>
        <mxCell id="cNzEcOBiY9ntpD_yxa8k-15" value="&lt;span style=&quot;border-bottom: 1px dotted&quot;&gt;id_proveedor&lt;/span&gt;" style="ellipse;whiteSpace=wrap;html=1;align=center;" parent="1" vertex="1">
          <mxGeometry x="640" y="190" width="100" height="40" as="geometry" />
        </mxCell>
        <mxCell id="cNzEcOBiY9ntpD_yxa8k-16" value="" style="endArrow=none;html=1;rounded=0;entryX=0;entryY=1;entryDx=0;entryDy=0;exitX=1;exitY=0;exitDx=0;exitDy=0;" parent="1" source="cNzEcOBiY9ntpD_yxa8k-19" target="CgpgjMbZIhGa_wemtQu6-7" edge="1">
          <mxGeometry relative="1" as="geometry">
            <mxPoint x="360" y="280" as="sourcePoint" />
            <mxPoint x="520" y="280" as="targetPoint" />
          </mxGeometry>
        </mxCell>
        <mxCell id="cNzEcOBiY9ntpD_yxa8k-18" value="N" style="resizable=0;html=1;whiteSpace=wrap;align=right;verticalAlign=bottom;" parent="cNzEcOBiY9ntpD_yxa8k-16" connectable="0" vertex="1">
          <mxGeometry x="1" relative="1" as="geometry" />
        </mxCell>
        <mxCell id="cNzEcOBiY9ntpD_yxa8k-20" value="" style="endArrow=none;html=1;rounded=0;entryX=0;entryY=1;entryDx=0;entryDy=0;exitX=1;exitY=0;exitDx=0;exitDy=0;" parent="1" source="CgpgjMbZIhGa_wemtQu6-16" target="cNzEcOBiY9ntpD_yxa8k-19" edge="1">
          <mxGeometry relative="1" as="geometry">
            <mxPoint x="280" y="410" as="sourcePoint" />
            <mxPoint x="530" y="150" as="targetPoint" />
          </mxGeometry>
        </mxCell>
        <mxCell id="cNzEcOBiY9ntpD_yxa8k-21" value="M" style="resizable=0;html=1;whiteSpace=wrap;align=left;verticalAlign=bottom;" parent="cNzEcOBiY9ntpD_yxa8k-20" connectable="0" vertex="1">
          <mxGeometry x="-1" relative="1" as="geometry">
            <mxPoint y="10" as="offset" />
          </mxGeometry>
        </mxCell>
        <mxCell id="cNzEcOBiY9ntpD_yxa8k-19" value="Relationship" style="shape=rhombus;perimeter=rhombusPerimeter;whiteSpace=wrap;html=1;align=center;" parent="1" vertex="1">
          <mxGeometry x="340" y="250" width="120" height="60" as="geometry" />
        </mxCell>
        <mxCell id="cNzEcOBiY9ntpD_yxa8k-23" value="&lt;span style=&quot;border-bottom: 1px dotted&quot;&gt;id_proveedor&lt;/span&gt;" style="ellipse;whiteSpace=wrap;html=1;align=center;" parent="1" vertex="1">
          <mxGeometry x="30" y="350" width="100" height="40" as="geometry" />
        </mxCell>
        <mxCell id="cNzEcOBiY9ntpD_yxa8k-24" value="&lt;span style=&quot;border-bottom: 1px dotted&quot;&gt;id_pieza&lt;/span&gt;" style="ellipse;whiteSpace=wrap;html=1;align=center;" parent="1" vertex="1">
          <mxGeometry x="270" y="480" width="100" height="40" as="geometry" />
        </mxCell>
        <mxCell id="cNzEcOBiY9ntpD_yxa8k-25" value="" style="endArrow=none;html=1;rounded=0;entryX=0.75;entryY=1;entryDx=0;entryDy=0;exitX=0.25;exitY=0;exitDx=0;exitDy=0;" parent="1" source="cNzEcOBiY9ntpD_yxa8k-28" target="CgpgjMbZIhGa_wemtQu6-1" edge="1">
          <mxGeometry relative="1" as="geometry">
            <mxPoint x="360" y="280" as="sourcePoint" />
            <mxPoint x="520" y="280" as="targetPoint" />
          </mxGeometry>
        </mxCell>
        <mxCell id="cNzEcOBiY9ntpD_yxa8k-27" value="N" style="resizable=0;html=1;whiteSpace=wrap;align=right;verticalAlign=bottom;" parent="cNzEcOBiY9ntpD_yxa8k-25" connectable="0" vertex="1">
          <mxGeometry x="1" relative="1" as="geometry">
            <mxPoint x="15" y="20" as="offset" />
          </mxGeometry>
        </mxCell>
        <mxCell id="cNzEcOBiY9ntpD_yxa8k-29" value="" style="endArrow=none;html=1;rounded=0;entryX=0.75;entryY=1;entryDx=0;entryDy=0;exitX=0.25;exitY=0;exitDx=0;exitDy=0;" parent="1" source="CgpgjMbZIhGa_wemtQu6-16" target="cNzEcOBiY9ntpD_yxa8k-28" edge="1">
          <mxGeometry relative="1" as="geometry">
            <mxPoint x="205" y="410" as="sourcePoint" />
            <mxPoint x="235" y="150" as="targetPoint" />
          </mxGeometry>
        </mxCell>
        <mxCell id="cNzEcOBiY9ntpD_yxa8k-30" value="M" style="resizable=0;html=1;whiteSpace=wrap;align=left;verticalAlign=bottom;" parent="cNzEcOBiY9ntpD_yxa8k-29" connectable="0" vertex="1">
          <mxGeometry x="-1" relative="1" as="geometry" />
        </mxCell>
        <mxCell id="cNzEcOBiY9ntpD_yxa8k-28" value="Relationship" style="shape=rhombus;perimeter=rhombusPerimeter;whiteSpace=wrap;html=1;align=center;" parent="1" vertex="1">
          <mxGeometry x="150" y="240" width="120" height="60" as="geometry" />
        </mxCell>
        <mxCell id="cNzEcOBiY9ntpD_yxa8k-52" value="&lt;span style=&quot;border-bottom: 1px dotted&quot;&gt;id_categoria&lt;/span&gt;" style="ellipse;whiteSpace=wrap;html=1;align=center;" parent="1" vertex="1">
          <mxGeometry x="490" y="180" width="100" height="40" as="geometry" />
        </mxCell>
      </root>
    </mxGraphModel>
  </diagram>
</mxfile>
